<?xml version="1.0" encoding="UTF-8" standalone="no"?>
<svg
   xmlns:dc="http://purl.org/dc/elements/1.1/"
   xmlns:cc="http://creativecommons.org/ns#"
   xmlns:rdf="http://www.w3.org/1999/02/22-rdf-syntax-ns#"
   xmlns:svg="http://www.w3.org/2000/svg"
   xmlns="http://www.w3.org/2000/svg"
   xmlns:sodipodi="http://sodipodi.sourceforge.net/DTD/sodipodi-0.dtd"
   xmlns:inkscape="http://www.inkscape.org/namespaces/inkscape"
   version="1.1"
   id="svg1035"
   width="313.26315"
   height="315.28421"
   viewBox="0 0 313.26315 315.28421"
   sodipodi:docname="vader.svg"
   inkscape:version="1.0.2 (e86c870879, 2021-01-15, custom)">
  <metadata
     id="metadata1041">
    <rdf:RDF>
      <cc:Work
         rdf:about="">
        <dc:format>image/svg+xml</dc:format>
        <dc:type
           rdf:resource="http://purl.org/dc/dcmitype/StillImage" />
        <dc:title></dc:title>
      </cc:Work>
    </rdf:RDF>
  </metadata>
  <defs
     id="defs1039" />
  <sodipodi:namedview
     pagecolor="#ffffff"
     bordercolor="#666666"
     borderopacity="1"
     objecttolerance="10"
     gridtolerance="10"
     guidetolerance="10"
     inkscape:pageopacity="0"
     inkscape:pageshadow="2"
     inkscape:window-width="1708"
     inkscape:window-height="881"
     id="namedview1037"
     showgrid="false"
     inkscape:zoom="2.1834678"
     inkscape:cx="156.63158"
     inkscape:cy="146.07863"
     inkscape:window-x="-9"
     inkscape:window-y="207"
     inkscape:window-maximized="1"
     inkscape:current-layer="g1043" />
  <g
     inkscape:groupmode="layer"
     inkscape:label="Image"
     id="g1043">
    <path
       style="fill:#000000;stroke-width:1.01053"
       d="m 22.231578,303.84177 c 0,-1.09503 2.258407,-1.80624 8.589474,-2.70493 4.72421,-0.6706 8.589473,-1.60534 8.589473,-2.07721 0,-0.47186 -2.806013,-0.99331 -6.235585,-1.15878 -3.429571,-0.16547 -6.395716,-0.78666 -6.591434,-1.38042 -0.596442,-1.80946 4.127659,-7.92572 7.306848,-9.46011 2.153927,-1.03956 9.939701,-1.70091 27.75175,-2.35732 l 24.757894,-0.91239 4.815181,-2.94794 c 6.269522,-3.83831 8.400874,-3.81503 9.183941,0.10035 0.71696,3.5848 2.79879,4.57364 13.16769,6.25446 3.95509,0.64113 7.60381,1.51945 8.10826,1.95181 1.64792,1.41248 -1.39559,3.70876 -7.76787,5.86071 -3.93999,1.33056 -7.63322,3.48377 -10.08787,5.88136 l -3.87234,3.78232 -38.857706,0.32687 c -33.664377,0.28319 -38.857706,0.12832 -38.857706,-1.15878 z m 100.042102,-1.81164 c 0,-2.60313 6.11668,-11.14957 9.62486,-13.44823 1.40156,-0.91834 5.02478,-2.12751 8.05162,-2.68705 6.16822,-1.14026 29.30207,-10.03378 29.70934,-11.42138 0.14448,-0.49223 -1.47717,-1.86938 -3.60368,-3.06033 -3.02562,-1.69452 -3.97621,-2.91316 -4.37161,-5.6043 -0.40692,-2.76959 -1.09531,-3.60549 -3.53685,-4.29468 -3.98795,-1.12572 -7.51631,-0.40665 -16.67368,3.39807 -7.38005,3.06628 -7.88742,3.13474 -19.33361,2.60855 l -11.75465,-0.54035 -6.43482,3.57181 c -13.052572,7.24518 -27.150602,10.80753 -27.150602,6.86053 0,-1.81696 2.732419,-3.5744 10.282885,-6.61374 3.154534,-1.26981 7.019797,-3.34652 8.589474,-4.61489 2.852556,-2.305 2.852965,-2.30711 0.832904,-4.30884 -3.885917,-3.85066 -54.31739,-30.46477 -57.728144,-30.46477 -0.921256,0 -4.848252,0.94503 -8.726657,2.10007 -7.789565,2.31983 -11.38938,1.98829 -12.382386,-1.14039 -0.861599,-2.71466 1.023516,-4.85568 6.246533,-7.09453 2.330884,-0.99914 4.792147,-2.8521 5.469473,-4.11769 1.463603,-2.73477 0.770124,-25.21353 -1.507453,-48.86325 -0.802875,-8.33685 -1.780226,-20.48572 -2.171889,-26.99749 -0.688318,-11.44393 -0.623763,-12.01801 1.931739,-17.17894 1.45412,-2.93665 6.285936,-9.55636 10.737368,-14.71047 8.230086,-9.52924 10.864024,-13.718858 13.16756,-20.944682 2.332017,-7.315165 11.843115,-25.243681 19.337294,-36.450996 21.454167,-32.08405 45.414381,-45.906899 79.573991,-45.906899 22.27911,0 44.21986,4.676227 59.90665,12.76788 15.81912,8.159916 28.41348,22.669641 33.21269,38.263699 0.85343,2.773063 1.45594,17.842935 1.91906,47.999998 l 0.67506,43.9579 17.9784,41.93684 c 21.94746,51.1952 26.12338,61.56222 25.47664,63.24759 -0.97092,2.53018 -5.42928,4.49617 -14.84725,6.54714 -5.23094,1.13915 -9.89278,2.44923 -10.35965,2.9113 -0.46687,0.46207 1.35207,2.34651 4.0421,4.18764 2.69004,1.84114 9.24741,7.50609 14.57195,12.58879 8.17635,7.80496 10.79559,9.66716 16.85249,11.98164 7.38048,2.82023 10.00032,4.7766 8.86231,6.61795 -0.44519,0.72033 -30.11216,1.05479 -93.56068,1.05479 h -92.90878 z m 61.06077,-30.11449 c 2.02455,-2.2371 1.18664,-4.65529 -3.26804,-9.43143 -4.04708,-4.33914 -7.26641,-3.32706 -7.26641,2.28439 0,1.96703 6.10652,9.08403 7.79428,9.08403 0.54296,0 1.77605,-0.87165 2.74017,-1.93699 z m -12.11734,-49.05517 c -0.89621,-1.36778 -2.93147,-7.67696 -4.5228,-14.02037 -1.59132,-6.34342 -5.42712,-19.34645 -8.52399,-28.89562 -3.09687,-9.54917 -5.36525,-17.79158 -5.04086,-18.31647 1.23157,-1.99272 3.59981,-0.80479 6.65932,3.34041 2.53002,3.42781 3.05074,3.78478 2.57965,1.76842 -5.0311,-21.53396 -7.21602,-48.90278 -4.14888,-51.96992 4.21831,-4.21831 8.63884,-0.72737 12.05027,9.51623 1.47903,4.44112 3.08814,8.32136 3.5758,8.62275 2.61336,1.61515 7.47671,-14.13459 5.40366,-17.49949 -1.10372,-1.7915 -4.02319,-3.4555 -13.68994,-7.80282 -3.14867,-1.41601 -10.65182,-6.19799 -16.67368,-10.626614 -12.93679,-9.514047 -17.24698,-11.082239 -30.45958,-11.082239 -8.62256,0 -10.43403,0.355893 -18.763951,3.686499 -12.697375,5.076869 -16.189228,7.464361 -18.174746,12.426654 -3.181274,7.95079 -2.955853,8.16993 7.691562,7.47708 5.932873,-0.38606 11.557965,-0.14715 15.398995,0.65403 5.51398,1.15014 6.75674,1.94725 13.9883,8.97217 13.55442,13.1671 22.12292,26.06504 29.62523,44.59409 5.00513,12.36162 11.57157,33.79361 14.55166,47.49474 2.42623,11.1548 4.02902,14.14737 7.57715,14.14737 2.45177,0 2.47824,-0.0734 0.89683,-2.4869 z M 64.805715,221.53594 c 4.547063,-2.81025 4.761306,-2.80227 5.910361,0.21997 0.905864,2.38261 1.05041,2.41649 4.009954,0.94008 1.68862,-0.8424 10.235534,-3.11358 18.993145,-5.04708 8.757605,-1.93351 16.377665,-3.70885 16.933455,-3.94519 0.55579,-0.23635 -3.30947,-0.32796 -8.58947,-0.20357 l -9.600004,0.22617 -0.300621,-2.58068 c -0.281971,-2.42057 0.865637,-3.13755 18.499355,-11.55754 10.33998,-4.93728 19.04284,-9.36985 19.33968,-9.85015 0.29685,-0.48031 -0.97944,-0.24193 -2.83619,0.52971 -1.85675,0.77165 -9.06188,3.55994 -16.0114,6.1962 l -12.635489,4.79319 -9.090825,-8.96943 c -5.111518,-5.04327 -11.193835,-9.98487 -13.895201,-11.28922 -4.407862,-2.12831 -5.210321,-2.21573 -9.723067,-1.05914 -2.705281,0.69334 -5.659102,0.9765 -6.564046,0.62923 -2.809405,-1.07807 -1.878627,-4.4279 1.874905,-6.74772 1.936142,-1.19659 5.480161,-4.7579 7.875596,-7.91399 2.556492,-3.3683 5.278898,-5.87208 6.59145,-6.06212 1.229862,-0.17807 4.847949,0.89175 8.040194,2.37737 11.305947,5.26161 11.33918,5.25966 29.298813,-1.71893 9.54366,-3.70839 12.77695,-5.89257 8.72289,-5.89257 -0.89927,0 -3.25117,-1.419 -5.22646,-3.15332 -3.4214,-3.00403 -3.88222,-3.12296 -9.73341,-2.51204 -3.37807,0.35272 -9.028659,1.54561 -12.556841,2.65088 -3.528181,1.10527 -8.820463,2.29231 -11.760626,2.63787 l -5.345751,0.62829 -0.371476,-11.70216 c -0.390807,-12.31107 -1.176495,-14.49152 -4.806619,-13.33936 -2.83936,0.90118 -4.075251,3.46282 -5.280071,10.94407 -1.621036,10.06572 -3.868525,13.91491 -11.925803,20.42489 -7.287699,5.88819 -9.16846,8.14815 -9.16846,11.01699 0,1.28696 0.431603,1.36391 2.461875,0.43885 1.354031,-0.61694 3.150723,-0.85737 3.992651,-0.53429 0.841927,0.32308 3.765407,5.10024 6.496624,10.61592 2.731216,5.51567 6.330192,12.01848 7.997725,14.45069 4.229365,6.1688 8.356387,14.57466 8.356387,17.02018 0,3.29496 -3.723436,2.57051 -5.617938,-1.09305 -1.743776,-3.37209 -3.097654,-2.95349 -3.643862,1.12664 -0.275529,2.05818 -0.899965,2.52631 -3.369778,2.52631 -2.768193,0 -3.081083,-0.35117 -3.601366,-4.0421 l -0.569788,-4.04211 -0.763307,3.03158 c -2.100018,8.34052 -4.702401,9.93242 -7.02091,4.29474 L 48.841356,212.71579 47.131569,216 c -1.735431,3.33346 -4.362763,4.21723 -6.420363,2.15963 -1.474016,-1.47402 -2.971185,-0.46346 -4.932514,3.32933 l -1.596409,3.08711 13.490034,-0.39421 c 11.775321,-0.3441 13.953142,-0.68042 17.133398,-2.64592 z m 50.120605,-8.92542 c -0.3358,-0.33579 -1.20738,-0.37168 -1.93685,-0.0797 -0.80613,0.32258 -0.56668,0.56204 0.61053,0.61052 1.06526,0.0439 1.6621,-0.19496 1.32632,-0.53075 z m -5.10141,-70.62108 c 1.76791,-0.35512 3.81423,-1.38369 4.54737,-2.2857 1.16812,-1.4372 1.08303,-1.53726 -0.68807,-0.80897 -4.51819,1.8579 -5.96211,1.25347 -6.63571,-2.77773 -0.98062,-5.86859 -2.59782,-6.7382 -3.88824,-2.09082 -1.91317,6.89024 -1.28916,9.92412 1.86138,9.04982 0.87389,-0.24252 3.03536,-0.73149 4.80327,-1.0866 z M 55.321899,121.01053 c 1.163967,-1.25053 4.044077,-5.91158 6.400243,-10.3579 2.356167,-4.44631 4.964103,-8.88 5.795412,-9.85263 2.089101,-2.444247 4.229813,-2.214104 4.229813,0.45474 0,4.15094 2.051139,0.34786 2.681091,-4.971103 0.6021,-5.083798 0.58438,-5.124314 -2.541583,-5.810891 -1.731351,-0.380268 -3.406621,-1.109999 -3.722822,-1.621624 -0.629278,-1.018193 3.066347,-15.250833 7.06505,-27.209017 l 2.534328,-7.578947 -2.430633,2.957704 c -5.318516,6.47181 -15.327424,28.216392 -18.639585,40.494927 -0.599702,2.223158 -4.042677,8.014741 -7.651057,12.870161 l -6.560692,8.82806 3.769794,1.99045 c 4.912225,2.59362 6.507782,2.55952 9.070641,-0.19393 z M 149.21862,82.289723 c 1.04128,-2.713536 -1.80042,-6.454665 -5.81691,-7.658035 -3.30548,-0.990347 -4.22643,-0.856695 -7.33495,1.064483 -3.29907,2.038932 -3.8083,2.091134 -7.07685,0.72545 -9.44717,-3.947278 -7.1083,-14.021969 4.57603,-19.711306 11.72139,-5.70738 26.97862,-6.468701 43.27616,-2.15944 4.16842,1.102179 8.66086,2.011756 9.9832,2.02128 2.37154,0.01709 2.39473,-0.07941 1.7039,-7.09024 -1.59511,-16.187861 -5.92851,-22.294509 -18.71852,-26.378227 -8.32553,-2.658256 -24.54075,-3.583686 -34.01613,-1.941357 -13.43486,2.328606 -26.58954,11.330147 -37.215777,25.466167 -5.206812,6.926591 -16.028536,27.837129 -15.145684,29.265614 0.317745,0.514123 2.366838,1.847509 4.55354,2.963081 3.509094,1.790206 4.716973,1.908034 10.289331,1.003719 10.70438,-1.737167 26.4028,-1.144259 38.14509,1.440689 5.83579,1.284691 10.96585,2.388966 11.40013,2.453942 0.43429,0.06498 1.06313,-0.594641 1.39744,-1.46582 z M 88.326075,46.372871 c 1.021112,-1.728606 4.870736,-6.386115 8.554719,-10.350022 l 6.698146,-7.207102 -5.052627,3.943788 c -7.396167,5.773015 -16.658137,14.953351 -16.061037,15.919479 1.134212,1.835193 4.104968,0.66624 5.860799,-2.306143 z"
       id="path1047" />
  </g>
</svg>
